<svg xmlns="http://www.w3.org/2000/svg" viewBox="-128 -128 256 256">
	<style>*{color-scheme:light dark;fill:light-dark(#000,#fff)}</style>
	<path d="M 0 -115 L -35 -77 L 0 -61 L 35 -77 Z M -51 -77 L -49 -40 L -9 -58 Z M 51 -77 L 9 -58 L 49 -40 Z M 0 -54 L -42 -35 L 0 -15 L 42 -35 Z M -67 -37 L -64 13 L -8 -11 Z M 67 -37 L 8 -11 L 64 13 Z M 0 -6 L -58 19 L 0 45 L 58 19 Z M 81 16 L 9 49 L 65 74 Z M -81 16 L -65 74 L -9 49 Z M 0 53 L -58 79 L 0 106 L 58 79 Z M -9 109 L -8 124 L 8 124 L 9 109 L 0 113 Z" fill="0"/>
</svg>